<?xml version="1.0" encoding="utf-8"?>
<!-- Generator: Adobe Illustrator 16.0.0, SVG Export Plug-In . SVG Version: 6.00 Build 0)  -->
<!DOCTYPE svg PUBLIC "-//W3C//DTD SVG 1.1//EN" "http://www.w3.org/Graphics/SVG/1.1/DTD/svg11.dtd">
<svg version="1.1" id="Layer_1" xmlns="http://www.w3.org/2000/svg" xmlns:xlink="http://www.w3.org/1999/xlink" x="0px" y="0px"
	 width="32px" height="32px" viewBox="0 0 32 32" enable-background="new 0 0 32 32" xml:space="preserve">
<path fill="#FFFFFF" d="M16,11.428C9.143,11.428,3.429,16,0,21.714C3.429,27.428,9.143,32,16,32c6.855,0,12.57-4.572,16-10.286
	C28.57,16,22.855,11.428,16,11.428z M16,29.143c-4.103,0-7.429-3.326-7.429-7.429s3.326-7.429,7.429-7.429
	c4.104,0,7.43,3.326,7.43,7.429S20.104,29.143,16,29.143z"/>
<path fill="#FFFFFF" d="M16,17.143c-0.697,0-1.351,0.168-1.943,0.447c0.664,0.237,1.143,0.865,1.143,1.61
	c0,0.946-0.767,1.715-1.713,1.715c-0.746,0-1.373-0.479-1.609-1.146c-0.28,0.594-0.449,1.246-0.449,1.943
	c0,2.525,2.047,4.571,4.572,4.571c2.524,0,4.571-2.046,4.571-4.571S18.525,17.143,16,17.143z"/>
</svg>
